<svg width="1000" height="660" xmlns="http://www.w3.org/2000/svg" preserveAspectRatio="xMidYMid meet">
 <metadata>Created by potrace 1.16, written by Peter Selinger 2001-2019</metadata>

 <g>
  <title>Layer 1</title>
  <g id="svg_1" fill="#000000" transform="translate(0, 1201) scale(0.1, -0.1)">
   <path fill="#050716" id="svg_2" d="m-840,9060l0,-6000l6000,0l6000,0l0,6000l0,6000l-6000,0l-6000,0l0,-6000zm6610,2621c123,-42 169,-79 485,-396c347,-349 378,-382 438,-473c194,-295 251,-626 161,-940c-30,-106 -118,-286 -178,-366c-175,-231 -419,-405 -656,-468c-68,-18 -112,-22 -220,-22c-140,0 -226,16 -360,65c-225,83 -507,276 -736,504c-92,92 -113,118 -123,157c-23,82 4,160 71,211c36,27 109,51 136,43c9,-2 29,-7 44,-10c17,-4 81,-57 160,-132c322,-305 561,-436 797,-435c47,0 113,7 145,16c202,54 426,258 511,466c109,268 47,566 -164,791c-131,140 -578,582 -606,599c-33,21 -98,25 -142,9c-42,-16 -1670,-1645 -1694,-1695c-25,-53 -24,-93 4,-145c16,-30 37,-51 67,-67c81,-43 144,-24 252,76c100,92 161,110 243,72c76,-35 115,-95 115,-178c0,-60 -22,-104 -84,-167c-180,-184 -345,-248 -543,-212c-210,37 -370,177 -439,383c-24,72 -26,88 -22,203c5,135 17,178 71,260c16,25 415,431 886,903c894,896 899,901 1025,945c110,38 248,39 356,3zm-2373,-3506c80,-19 146,-56 210,-117c198,-193 160,-534 -77,-683c-206,-130 -507,-72 -637,123c-91,137 -98,317 -19,470c23,44 121,139 170,165c105,54 236,70 353,42zm3701,-14c62,-25 117,-63 160,-113l32,-36l-85,-66c-47,-36 -89,-66 -93,-66c-5,0 -19,12 -33,26c-50,55 -155,80 -226,53c-38,-14 -80,-56 -106,-104c-30,-56 -30,-164 0,-221c69,-131 225,-150 340,-41l32,30l82,-59c45,-33 84,-64 86,-69c2,-6 -20,-34 -47,-63c-234,-238 -661,-129 -746,192c-18,67 -18,189 1,249c47,155 175,275 327,307c70,15 216,5 276,-19zm859,14c80,-19 146,-56 210,-117c198,-193 160,-534 -77,-683c-206,-130 -507,-72 -637,123c-91,137 -98,317 -19,470c23,44 121,139 170,165c105,54 236,70 353,42zm-2762,-125c29,-69 109,-259 179,-423c69,-164 126,-300 126,-303c0,-2 -57,-4 -128,-4l-127,0l-29,75l-29,75l-165,-2l-166,-3l-29,-72l-29,-73l-124,0c-68,0 -124,2 -124,4c0,3 57,139 126,303c70,164 149,352 176,418c27,66 52,123 55,128c2,4 57,6 120,5l116,-3l52,-125zm543,119l87,0l170,-221l170,-220l5,224l5,223l113,0l112,0l0,-427l0,-428l-104,0l-103,0l-179,230l-179,229l-3,-229l-2,-230l-115,0l-115,0l0,424c0,437 0,442 38,430c8,-2 53,-4 100,-5zm-3165,-28c111,-52 170,-142 170,-261c0,-36 -5,-84 -12,-107c-38,-136 -185,-212 -408,-213l-63,0l0,-120l0,-120l-115,0l-115,0l0,426l0,426l248,-4c233,-4 250,-5 295,-27zm1477,-291l0,-320l208,-2l207,-3l3,-102l3,-103l-326,0l-325,0l0,425l0,425l115,0l115,0l0,-320zm-1737,-1011c23,-5 53,-19 67,-29l25,-19l-24,-25l-24,-25l-40,21c-80,40 -169,10 -203,-69c-53,-125 64,-241 193,-192c34,13 43,26 43,62c0,26 -2,27 -55,27l-55,0l0,35l0,35l90,0l90,0l0,-88l0,-89l-50,-27c-101,-55 -211,-44 -286,28c-116,113 -65,308 94,356c39,12 87,12 135,-1zm1028,1c113,-32 133,-197 29,-240c-17,-7 -30,-15 -30,-17c0,-3 21,-35 48,-71c70,-98 69,-92 19,-92c-43,0 -45,1 -98,75l-54,76l-50,-3l-50,-3l0,-73l0,-72l-37,0l-38,0l0,215l0,215l113,0c61,0 128,-5 148,-10zm1076,-205c84,-190 91,-210 73,-213c-46,-8 -62,3 -80,48l-18,45l-107,0l-107,0l-18,-45c-16,-42 -20,-45 -59,-48l-41,-3l19,43c24,54 144,324 162,361c11,24 18,28 48,25l35,-3l93,-210zm1000,189c59,-43 78,-121 45,-184c-27,-50 -81,-74 -174,-78l-78,-4l0,-69l0,-69l-35,0l-35,0l0,216l0,216l124,-3c107,-3 129,-7 153,-25zm775,-64l-3,-90l115,0l116,0l0,90l0,90l35,0l35,0l0,-215l0,-215l-35,0l-35,0l0,90l0,91l-112,-3l-113,-3l0,-88l0,-87l-37,0l-38,0l0,215l0,215l38,0l37,0l-3,-90zm1043,-125l0,-215l-37,0l-38,0l0,215l0,215l38,0l37,0l0,-215zm1003,186c53,-27 59,-38 34,-64l-21,-21l-44,22c-85,42 -171,18 -209,-58c-36,-70 -13,-148 54,-191c44,-27 122,-22 167,10c31,22 33,22 52,6c28,-26 24,-37 -22,-67c-52,-34 -117,-44 -182,-29c-68,16 -110,50 -143,116c-31,65 -30,125 5,193c51,101 198,140 309,83z"/>
   <path fill="#050716" id="svg_3" d="m3265,7974c-6,-1 -27,-5 -48,-9c-83,-14 -158,-119 -157,-219c3,-195 225,-298 364,-168c64,60 86,182 47,267c-16,36 -90,114 -109,115c-4,1 -25,4 -47,9c-22,4 -45,6 -50,5z"/>
   <path fill="#050716" id="svg_4" d="m7825,7974c-6,-1 -27,-5 -48,-9c-83,-14 -158,-119 -157,-219c3,-195 225,-298 364,-168c64,60 86,182 47,267c-16,36 -90,114 -109,115c-4,1 -25,4 -47,9c-22,4 -45,6 -50,5z"/>
   <path fill="#050716" id="svg_5" d="m5014,7874c-4,-10 -24,-62 -44,-114l-38,-95l85,-3c47,-2 88,-1 90,2c4,4 -73,215 -83,225c-2,2 -7,-5 -10,-15z"/>
   <path fill="#050716" id="svg_6" d="m2268,7974c-5,-4 -8,-56 -8,-116l0,-108l70,0c127,0 190,49 174,135c-10,57 -53,83 -149,91c-44,3 -83,3 -87,-2z"/>
   <path fill="#050716" id="svg_7" d="m3154,6766c-3,-7 -4,-38 -2,-67l3,-54l70,-3c96,-5 135,15 135,68c0,54 -29,70 -125,70c-55,0 -77,-4 -81,-14z"/>
   <path fill="#050716" id="svg_8" d="m5210,6705l0,-75l69,0c85,0 121,22 121,75c0,53 -36,75 -121,75l-69,0l0,-75z"/>
  </g>
 </g>
</svg>